REM DIRINDEX 1\2,1\3,1\4,1\5,1\6
REM DIRNAME folder01,folder02,folder03,folder04,folder05,folder06
TITLE ""
FILE "Disc2Track16.mp3" MP3
  TRACK 01 AUDIO
    TITLE "3:cjc030_02430"
    INDEX 01 00:00:00
  TRACK 02 AUDIO
    TITLE "0:"
    INDEX 01 00:00:58
  TRACK 03 AUDIO
    TITLE "4:cjc030_02431"
    INDEX 01 00:00:68
  TRACK 04 AUDIO
    TITLE "0:"
    INDEX 01 00:01:54
  TRACK 05 AUDIO
    TITLE "5:cjc030_02432"
    INDEX 01 00:01:62
  TRACK 06 AUDIO
    TITLE "0:"
    INDEX 01 00:02:61
  TRACK 07 AUDIO
    TITLE "6:cjc030_02433"
    INDEX 01 00:02:71
  TRACK 08 AUDIO
    TITLE "0:"
    INDEX 01 00:04:66
  TRACK 09 AUDIO
    TITLE "3:cjc030_02434"
    INDEX 01 00:05:38
  TRACK 10 AUDIO
    TITLE "0:"
    INDEX 01 00:06:37
  TRACK 11 AUDIO
    TITLE "4:cjc030_02435"
    INDEX 01 00:06:47
  TRACK 12 AUDIO
    TITLE "0:"
    INDEX 01 00:09:06
  TRACK 13 AUDIO
    TITLE "5:cjc030_02436"
    INDEX 01 00:09:16
  TRACK 14 AUDIO
    TITLE "0:"
    INDEX 01 00:10:14
  TRACK 15 AUDIO
    TITLE "6:cjc030_02437"
    INDEX 01 00:10:25
  TRACK 16 AUDIO
    TITLE "0:"
    INDEX 01 00:14:04
  TRACK 17 AUDIO
    TITLE "3:cjc030_02438"
    INDEX 01 00:14:51
  TRACK 18 AUDIO
    TITLE "0:"
    INDEX 01 00:15:60
  TRACK 19 AUDIO
    TITLE "4:cjc030_02439"
    INDEX 01 00:15:68
  TRACK 20 AUDIO
    TITLE "0:"
    INDEX 01 00:17:53
  TRACK 21 AUDIO
    TITLE "5:cjc030_02440"
    INDEX 01 00:17:61
  TRACK 22 AUDIO
    TITLE "0:"
    INDEX 01 00:18:68
  TRACK 23 AUDIO
    TITLE "3:cjc030_02441"
    INDEX 01 00:19:50
  TRACK 24 AUDIO
    TITLE "0:"
    INDEX 01 00:20:65
  TRACK 25 AUDIO
    TITLE "4:cjc030_02442"
    INDEX 01 00:20:73
  TRACK 26 AUDIO
    TITLE "0:"
    INDEX 01 00:21:58
  TRACK 27 AUDIO
    TITLE "5:cjc030_02443"
    INDEX 01 00:21:68
  TRACK 28 AUDIO
    TITLE "0:"
    INDEX 01 00:23:08
  TRACK 29 AUDIO
    TITLE "6:cjc030_02444"
    INDEX 01 00:23:18
  TRACK 30 AUDIO
    TITLE "0:"
    INDEX 01 00:28:00
  TRACK 31 AUDIO
    TITLE "3:cjc030_02445"
    INDEX 01 00:28:47
  TRACK 32 AUDIO
    TITLE "0:"
    INDEX 01 00:29:52
  TRACK 33 AUDIO
    TITLE "4:cjc030_02446"
    INDEX 01 00:29:62
  TRACK 34 AUDIO
    TITLE "0:"
    INDEX 01 00:32:21
  TRACK 35 AUDIO
    TITLE "5:cjc030_02447"
    INDEX 01 00:32:31
  TRACK 36 AUDIO
    TITLE "0:"
    INDEX 01 00:33:38
  TRACK 37 AUDIO
    TITLE "6:cjc030_02448"
    INDEX 01 00:33:48
  TRACK 38 AUDIO
    TITLE "0:"
    INDEX 01 00:38:26
  TRACK 39 AUDIO
    TITLE "3:cjc030_02449"
    INDEX 01 00:39:00
  TRACK 40 AUDIO
    TITLE "0:"
    INDEX 01 00:40:11
  TRACK 41 AUDIO
    TITLE "4:cjc030_02450"
    INDEX 01 00:40:17
  TRACK 42 AUDIO
    TITLE "0:"
    INDEX 01 00:42:00
  TRACK 43 AUDIO
    TITLE "5:cjc030_02451"
    INDEX 01 00:42:08
  TRACK 44 AUDIO
    TITLE "0:"
    INDEX 01 00:43:19
  TRACK 45 AUDIO
    TITLE "6:cjc030_02452"
    INDEX 01 00:43:31
  TRACK 46 AUDIO
    TITLE "0:"
    INDEX 01 00:46:68
  TRACK 47 AUDIO
    TITLE "3:cjc030_02453"
    INDEX 01 00:47:40
  TRACK 48 AUDIO
    TITLE "0:"
    INDEX 01 00:48:48
  TRACK 49 AUDIO
    TITLE "4:cjc030_02454"
    INDEX 01 00:48:57
  TRACK 50 AUDIO
    TITLE "0:"
    INDEX 01 00:49:49
  TRACK 51 AUDIO
    TITLE "5:cjc030_02455"
    INDEX 01 00:49:57
  TRACK 52 AUDIO
    TITLE "0:"
    INDEX 01 00:50:68
  TRACK 53 AUDIO
    TITLE "6:cjc030_02456"
    INDEX 01 00:51:03
  TRACK 54 AUDIO
    TITLE "0:"
    INDEX 01 00:53:27
  TRACK 55 AUDIO
    TITLE "3:cjc030_02457"
    INDEX 01 00:54:01
  TRACK 56 AUDIO
    TITLE "0:"
    INDEX 01 00:55:10
  TRACK 57 AUDIO
    TITLE "4:cjc030_02458"
    INDEX 01 00:55:18
  TRACK 58 AUDIO
    TITLE "0:"
    INDEX 01 00:57:27
  TRACK 59 AUDIO
    TITLE "5:cjc030_02459"
    INDEX 01 00:57:37
  TRACK 60 AUDIO
    TITLE "0:"
    INDEX 01 00:58:44
